<svg id="close" width="12" height="12" viewBox="0 0 19 19" xmlns="http://www.w3.org/2000/svg">
    <path
        d="M16.3964 0.291061L9.00515 7.68231L1.6139 0.291061C1.43613 0.128385 1.20245 0.040569 0.961536 0.0459068C0.720627 0.0512447 0.491066 0.149325 0.320675 0.319716C0.150285 0.490106 0.0522043 0.719667 0.0468665 0.960576C0.0415286 1.20149 0.129345 1.43517 0.292021 1.61294L7.67952 9.00419L0.290146 16.3936C0.199869 16.4796 0.127703 16.5828 0.077888 16.6971C0.0280734 16.8115 0.00161612 16.9346 7.17532e-05 17.0593C-0.00147261 17.184 0.0219271 17.3077 0.068895 17.4233C0.115863 17.5388 0.185451 17.6437 0.273569 17.732C0.361688 17.8202 0.466558 17.89 0.582015 17.9371C0.697472 17.9842 0.821187 18.0078 0.945886 18.0064C1.07058 18.0051 1.19375 17.9788 1.30815 17.9291C1.42254 17.8795 1.52586 17.8075 1.61202 17.7173L9.00515 10.3279L16.3964 17.7192C16.5742 17.8819 16.8078 17.9697 17.0488 17.9643C17.2897 17.959 17.5192 17.8609 17.6896 17.6905C17.86 17.5201 17.9581 17.2906 17.9634 17.0497C17.9688 16.8088 17.8809 16.5751 17.7183 16.3973L10.327 9.00606L17.7183 1.61294C17.8085 1.5269 17.8807 1.42369 17.9305 1.30936C17.9803 1.19504 18.0068 1.07191 18.0083 0.947212C18.0099 0.822515 17.9865 0.698767 17.9395 0.583243C17.8926 0.467719 17.823 0.36275 17.7348 0.274507C17.6467 0.186264 17.5419 0.116527 17.4264 0.0693949C17.3109 0.0222634 17.1872 -0.00131134 17.0625 5.62694e-05C16.9378 0.00142388 16.8147 0.0277064 16.7003 0.0773589C16.5859 0.127011 16.4826 0.199032 16.3964 0.289186V0.291061Z" />
</svg>